<svg width="13" height="13" viewBox="0 0 13 13" fill="none" xmlns="http://www.w3.org/2000/svg">
<g clip-path="url(#clip0_298_2595)">
<path d="M11.771 9.74972L7.43772 2.16638C7.34323 1.99966 7.20621 1.86098 7.04063 1.7645C6.87506 1.66802 6.68685 1.61719 6.49522 1.61719C6.30358 1.61719 6.11538 1.66802 5.9498 1.7645C5.78422 1.86098 5.6472 1.99966 5.55272 2.16638L1.21938 9.74972C1.12388 9.91512 1.0738 10.1028 1.07422 10.2938C1.07464 10.4848 1.12555 10.6723 1.22179 10.8373C1.31803 11.0023 1.45617 11.1389 1.62222 11.2332C1.78826 11.3276 1.97631 11.3764 2.1673 11.3747H10.834C11.024 11.3745 11.2107 11.3243 11.3752 11.2292C11.5398 11.134 11.6764 10.9972 11.7713 10.8326C11.8663 10.6679 11.9162 10.4812 11.9162 10.2911C11.9161 10.101 11.8661 9.91432 11.771 9.74972Z" stroke="#DC2626" stroke-width="1.08333" stroke-linecap="round" stroke-linejoin="round"/>
<path d="M6.5 4.875V7.04167" stroke="#DC2626" stroke-width="1.08333" stroke-linecap="round" stroke-linejoin="round"/>
<path d="M6.5 9.20801H6.50542" stroke="#DC2626" stroke-width="1.08333" stroke-linecap="round" stroke-linejoin="round"/>
</g>
<defs>
<clipPath id="clip0_298_2595">
<rect width="13" height="13" fill="white"/>
</clipPath>
</defs>
</svg>
