<svg width="13" height="13" viewBox="0 0 13 13" fill="none" xmlns="http://www.w3.org/2000/svg">
<path d="M5.95833 11.77C6.12302 11.865 6.30984 11.9151 6.5 11.9151C6.69016 11.9151 6.87698 11.865 7.04167 11.77L10.8333 9.60329C10.9979 9.5083 11.1345 9.37172 11.2296 9.20724C11.3247 9.04277 11.3748 8.85618 11.375 8.66621V4.33287C11.3748 4.1429 11.3247 3.95631 11.2296 3.79184C11.1345 3.62736 10.9979 3.49078 10.8333 3.39579L7.04167 1.22912C6.87698 1.13404 6.69016 1.08398 6.5 1.08398C6.30984 1.08398 6.12302 1.13404 5.95833 1.22912L2.16667 3.39579C2.00214 3.49078 1.86549 3.62736 1.77042 3.79184C1.67534 3.95631 1.62519 4.1429 1.625 4.33287V8.66621C1.62519 8.85618 1.67534 9.04277 1.77042 9.20724C1.86549 9.37172 2.00214 9.5083 2.16667 9.60329L5.95833 11.77Z" stroke="#0284C7" stroke-width="1.08333" stroke-linecap="round" stroke-linejoin="round"/>
<path d="M6.5 11.9167V6.5" stroke="#0284C7" stroke-width="1.08333" stroke-linecap="round" stroke-linejoin="round"/>
<path d="M1.78125 3.79199L6.49917 6.50033L11.2171 3.79199" stroke="#0284C7" stroke-width="1.08333" stroke-linecap="round" stroke-linejoin="round"/>
<path d="M4.0625 2.3125L8.9375 5.10208" stroke="#0284C7" stroke-width="1.08333" stroke-linecap="round" stroke-linejoin="round"/>
</svg>
