<svg width="20" height="20" viewBox="0 0 20 20" fill="none" xmlns="http://www.w3.org/2000/svg">
<g clip-path="url(#clip0_298_2900)">
<path d="M10.6901 1.81631C10.473 1.71727 10.2371 1.66602 9.99842 1.66602C9.75977 1.66602 9.52389 1.71727 9.30676 1.81631L2.16509 5.06631C2.01721 5.13152 1.89149 5.23831 1.80323 5.37369C1.71496 5.50907 1.66797 5.6672 1.66797 5.82881C1.66797 5.99043 1.71496 6.14855 1.80323 6.28393C1.89149 6.41931 2.01721 6.52611 2.16509 6.59131L9.31509 9.84965C9.53223 9.94869 9.7681 9.99994 10.0068 9.99994C10.2454 9.99994 10.4813 9.94869 10.6984 9.84965L17.8484 6.59965C17.9963 6.53444 18.122 6.42765 18.2103 6.29227C18.2986 6.15688 18.3455 5.99876 18.3455 5.83715C18.3455 5.67553 18.2986 5.51741 18.2103 5.38203C18.122 5.24665 17.9963 5.13985 17.8484 5.07465L10.6901 1.81631Z" stroke="#0284C7" stroke-width="1.66667" stroke-linecap="round" stroke-linejoin="round"/>
<path d="M1.66797 10C1.66758 10.1594 1.7129 10.3155 1.79857 10.45C1.88424 10.5844 2.00665 10.6914 2.1513 10.7583L9.31797 14.0167C9.53397 14.1145 9.76836 14.1651 10.0055 14.1651C10.2426 14.1651 10.477 14.1145 10.693 14.0167L17.843 10.7667C17.9905 10.7004 18.1155 10.5926 18.2028 10.4564C18.2901 10.3203 18.3359 10.1617 18.3346 10" stroke="#0284C7" stroke-width="1.66667" stroke-linecap="round" stroke-linejoin="round"/>
<path d="M1.66797 14.167C1.66758 14.3264 1.7129 14.4825 1.79857 14.617C1.88424 14.7514 2.00665 14.8584 2.1513 14.9253L9.31797 18.1837C9.53397 18.2815 9.76836 18.3321 10.0055 18.3321C10.2426 18.3321 10.477 18.2815 10.693 18.1837L17.843 14.9337C17.9905 14.8674 18.1155 14.7596 18.2028 14.6234C18.2901 14.4873 18.3359 14.3287 18.3346 14.167" stroke="#0284C7" stroke-width="1.66667" stroke-linecap="round" stroke-linejoin="round"/>
</g>
<defs>
<clipPath id="clip0_298_2900">
<rect width="20" height="20" fill="white"/>
</clipPath>
</defs>
</svg>
