<svg width="13" height="13" viewBox="0 0 13 13" fill="none" xmlns="http://www.w3.org/2000/svg">
<path d="M7.58203 2.16634V7.87551C7.99509 8.11399 8.31791 8.4821 8.50044 8.92275C8.68296 9.3634 8.71498 9.85196 8.59154 10.3127C8.46809 10.7734 8.19608 11.1805 7.81768 11.4708C7.43929 11.7612 6.97566 11.9186 6.4987 11.9186C6.02174 11.9186 5.55811 11.7612 5.17972 11.4708C4.80132 11.1805 4.52931 10.7734 4.40586 10.3127C4.28241 9.85196 4.31444 9.3634 4.49696 8.92275C4.67948 8.4821 5.00231 8.11399 5.41537 7.87551V2.16634C5.41537 1.87902 5.5295 1.60347 5.73267 1.40031C5.93583 1.19714 6.21138 1.08301 6.4987 1.08301C6.78602 1.08301 7.06157 1.19714 7.26473 1.40031C7.4679 1.60347 7.58203 1.87902 7.58203 2.16634Z" stroke="#0284C7" stroke-width="1.08333" stroke-linecap="round" stroke-linejoin="round"/>
</svg>
